PathFileType	4	(X/Y/Z)	Patient4_TMGait_0pt8_01_left_32.trc.trc
DataRate	CameraRate	NumFrames	NumMarkers	Units	OrigDataRate	OrigDataStartFrame	OrigNumFrames
88.050314465409	88.050314465409	4	33	mm	88.050314465409	106	       141
Frame#	Time	Sacral			L.Shoulder			Chest			R.Shoulder			Neck			R.ASIS			L.ASIS			R.Thigh.Superior			R.Thigh.Lateral			R.Thigh.Inferior			R.Patella			L.Thigh.Superior			L.Thigh.Lateral			L.Thigh.Inferior			L.Patella			L.Shank.Superior			L.Shank.Lateral			L.Shank.Inferior			R.Shank.Superior			R.Shank.Lateral			R.Shank.Inferior			R.Heel			R.Midfoot.Superior			R.Midfoot.Lateral			R.Toe			L.Heel			L.Midfoot.Lateral			L.Midfoot.Superior			L.Toe			L.Elbow			L.Wrist			R.Elbow			R.Wrist			
		X1	Y1	Z1	X2	Y2	Z2	X3	Y3	Z3	X4	Y4	Z4	X5	Y5	Z5	X6	Y6	Z6	X7	Y7	Z7	X8	Y8	Z8	X9	Y9	Z9	X10	Y10	Z10	X11	Y11	Z11	X12	Y12	Z12	X13	Y13	Z13	X14	Y14	Z14	X15	Y15	Z15	X16	Y16	Z16	X17	Y17	Z17	X18	Y18	Z18	X19	Y19	Z19	X20	Y20	Z20	X21	Y21	Z21	X22	Y22	Z22	X23	Y23	Z23	X24	Y24	Z24	X25	Y25	Z25	X26	Y26	Z26	X27	Y27	Z27	X28	Y28	Z28	X29	Y29	Z29	X30	Y30	Z30	X31	Y31	Z31	X32	Y32	Z32	X33	Y33	Z33	

106	36.402500000000	830.821126726461	1010.218267554473	523.760162410737	998.316474711412	1437.741373955339	337.698987161590	1118.513471405969	1361.661074655520	484.118084261600	1058.787664641285	1432.137709546946	669.229588960228	1008.290031807833	1496.089741064415	495.911311133825	1064.785728887274	947.741889145439	623.592245523184	1029.526639960975	962.803668126246	351.242484029353	1084.955152568489	740.305215732926	595.285960569225	993.718596718163	636.180174796845	655.388783999718	1063.601534782035	579.282708684298	575.757357221398	1054.860772690445	494.311415902005	580.216791059643	1120.990387055616	797.061456153358	365.424841474394	1082.207258309587	668.235292805068	283.228462275774	1198.230692192265	616.393680409145	329.937427454822	1222.646582515823	533.463649731986	317.491281435315	1174.278562096215	456.017374077301	314.291588533409	1047.519717101187	374.716080928031	277.496098642481	1081.389078330133	246.299286545667	326.294534704029	1027.311008070120	406.582404548389	584.474254264464	954.294370247064	300.987859150273	641.484119051869	1000.524987604052	208.350557378697	576.062021611913	868.866989487143	42.097126704952	536.382830250903	1040.059588904094	98.539344532954	574.757517941081	951.830428917777	36.843979960008	611.768287218290	1159.485201780544	47.828771548093	601.838704917424	926.627974188841	122.831174250911	379.478398063373	984.313523481447	103.523598731769	289.477655483052	1083.934632521210	143.136559940833	301.619530112593	1187.556811358053	62.925717658559	253.981969111494	923.116177819849	1087.553757217726	237.875844472762	960.814567523983	829.720867251681	226.446798732504	1115.994483142489	1085.327223158860	783.029581904140	1329.087178862560	938.037910330116	760.127486546163	
107	36.413857142857	830.096836273233	1009.877679750395	524.845497616682	996.646026606197	1437.046680081122	337.888860084791	1117.819158004526	1360.973213592075	483.487960196034	1059.533581541106	1431.694408554436	668.998479503122	1007.872006557992	1495.530033465258	495.942417412167	1064.316426325459	947.187493966109	623.692139387812	1028.025183458099	962.429014526483	351.375835995061	1081.807718955589	739.087480591875	594.780191987133	989.447371833746	635.857984942023	655.564787062398	1057.736680287879	578.261147226830	575.468204205750	1047.996395786248	493.571185492115	579.798334257491	1120.093668102343	798.125855078144	366.445693412758	1083.207089600165	669.071127311691	283.731118963920	1198.903258423198	618.144612391634	331.454445329018	1225.061871502943	537.118597719506	318.745187729695	1180.775111893725	458.895690043224	314.327895569416	1060.124837873120	370.149619586894	275.350907526986	1101.933668330419	243.453165343226	323.176838158964	1020.010426986092	406.023965809706	584.091908498343	946.970049171181	300.687315209194	641.590398079015	992.215420983930	207.931534272973	575.621112242170	859.715510249988	42.034264607270	536.322000613957	1030.858423696112	98.391660791755	574.603391714815	942.658107112440	36.855464289460	611.732225035392	1150.319432695551	47.638122338667	601.898908933291	955.323025913222	110.262618602324	373.770996146419	1014.954419075475	94.934601295887	284.335601874771	1111.904985420937	140.205068095785	297.724140749011	1220.487323492321	66.259968192946	250.926881236411	913.381402902900	1088.565056250110	239.463811975795	935.546423586423	829.417805541159	227.406025389771	1127.119572186482	1087.441332633345	782.447448942874	1349.883718381188	957.007171217425	754.599608901632	
108	36.425214285714	829.493683849829	1009.457736672850	525.812504535331	995.110039432706	1436.308171355523	337.981907122665	1117.218739248089	1360.196897837948	482.760204779349	1060.321950125211	1431.122356361295	668.651492608203	1007.530581132164	1494.867857540408	495.876497931409	1063.978785029650	946.530036813101	623.671363488911	1026.664330376616	961.873941204929	351.367314522519	1078.758899139876	737.767489874762	594.252739093514	985.235968129072	635.495918909299	655.727287093386	1051.891947785109	577.203955809725	575.135178535334	1041.161434779016	492.793102726575	579.365316823578	1118.927597311696	798.514534991159	367.402005243020	1083.547104591384	669.336152186282	284.200552186417	1198.730803026080	618.993252781120	333.111289906662	1226.487909164647	540.058375735089	320.209547437588	1186.355061517040	461.461112510219	314.580736906819	1072.511403294615	365.568495016090	273.184502601154	1122.159632035005	241.208138212585	320.305621161142	1012.691414130546	405.455763609981	583.735939328385	939.627316115324	300.383842065109	641.731504803655	983.864077022745	207.520055596707	575.219628885892	850.558896021838	41.971905911599	536.276347844597	1021.644592565735	98.236715511885	574.452523513066	933.476047250059	36.855813544203	611.702847887231	1141.149842734983	47.452025674203	601.944043918381	984.336650980727	98.816037258216	368.140294688156	1045.918973734523	87.430751752614	279.465906632537	1139.814218416940	138.230449762392	294.201821300705	1253.081776462279	70.797626914826	248.701697845805	903.717593169062	1089.908155206250	240.755855097202	911.377493853941	830.370350099838	228.447910003204	1137.892690959565	1089.736518356438	781.521718963673	1369.041857863477	977.131740778941	748.648467793959	
109	36.436571428571	829.033778503861	1008.964018480175	526.667204428577	993.717701671343	1435.535863313628	337.972139423560	1116.715772494731	1359.346937427566	481.937499519913	1061.149635297623	1430.441392894574	668.186651579199	1007.264643295099	1494.118169501143	495.709433337692	1063.789671481146	945.776692562113	623.530215058732	1025.455798044620	961.151542167644	351.224991110873	1075.845109728186	736.355357077647	593.724216366421	981.124513965122	635.099679984194	655.880505746719	1046.126361130212	576.118162876765	574.777517812799	1034.415634234693	491.977617270947	578.935628927189	1117.523080007338	798.247924464107	368.268597726802	1083.245538226507	669.044470909856	284.572491874161	1197.793716255460	618.986505786405	334.795669631521	1227.002570504810	542.299252963034	321.791685894981	1191.042631135519	463.715888601486	314.998313416015	1084.570310722654	361.086203786404	271.057436094915	1141.835505593796	239.649338668297	317.757795623873	1005.405239120623	404.878978589969	583.422146168579	932.285988420227	300.090618751677	641.911046578276	975.490321432008	207.121032334461	574.873407440859	841.396890656743	41.914468372999	536.248465315524	1012.428060435152	98.077578151087	574.312123045123	924.287372897878	36.844999175498	611.683689271178	1131.983471481439	47.270777775406	601.971994587757	1013.284408848197	88.727028443328	362.798265840764	1076.796871603557	81.151163557463	275.056109894010	1167.304781493615	137.280095492910	291.156977052277	1284.917285160105	76.499009034020	247.392794699645	894.154300149227	1091.589521391384	241.764254370420	888.471599737656	832.395476796108	229.587264715335	1148.330001027920	1092.196994332344	780.255301718920	1386.434055562698	998.199924112809	742.350534756123	
